<?xml version="1.0" encoding="iso-8859-1"?>
<!-- Generator: Adobe Illustrator 18.0.0, SVG Export Plug-In . SVG Version: 6.00 Build 0)  -->
<!DOCTYPE svg PUBLIC "-//W3C//DTD SVG 1.1//EN" "http://www.w3.org/Graphics/SVG/1.1/DTD/svg11.dtd">
<svg version="1.1" id="Capa_1" xmlns="http://www.w3.org/2000/svg" xmlns:xlink="http://www.w3.org/1999/xlink" x="0px" y="0px"
	 viewBox="0 0 297 297" style="enable-background:new 0 0 297 297;" xml:space="preserve">
<path d="M230.58,133.822h-71.131v-1.089l33.681-28.847c5.601,2.496,11.647,3.823,17.846,3.823c12.58,0,24.462-5.429,32.634-14.899
	c13.872-16.085,35.576-55.348,14.152-74.046c-5.667-4.945-13.45-7.453-23.123-7.453c-19.772,0-46.66,11.064-57.535,23.675
	c-12.477,14.462-13.539,35.032-4.201,50.857l-13.453,11.56V61.461c0-7.417-6.015-13.43-13.432-13.43s-13.432,6.013-13.432,13.43
	V73.46l-6.865-6.793c6.393-18.423-0.072-39.457-16.794-50.455C99.021,9.695,77.961,0,60.593,0C45.886,0,38.443,6.693,34.793,12.312
	C20.23,34.757,43.601,77.725,61.235,89.32c6.912,4.549,14.935,6.953,23.206,6.953c9.058,0,17.771-2.835,24.978-7.922l23.166,23.095
	v22.376H61.157c-4.119,0-8.009,1.866-10.556,5.104c-2.546,3.237-3.466,7.453-2.496,11.455L81.164,286.74
	c1.46,6.024,6.853,10.26,13.052,10.26h102.273c6.162,0,11.534-4.194,13.029-10.172l34.091-136.365
	c1.003-4.012,0.101-8.239-2.443-11.499C238.621,135.705,234.715,133.822,230.58,133.822z M84.439,69.413
	c-3.008,0-5.929-0.875-8.448-2.533c-3.593-2.363-9.87-10.357-14.426-20.519c-4.617-10.297-4.921-17.126-4.367-19.105
	c0.528-0.172,1.62-0.396,3.377-0.396c9.349,0,24.897,6.098,33.554,11.792c7.427,4.885,9.351,15.202,4.289,23
	C95.262,66.512,90.037,69.413,84.439,69.413z M197.44,52.53c4.89-5.67,23.498-14.359,37.194-14.359c2.933,0,4.597,0.456,5.22,0.713
	c0.34,1.476,0.254,6.368-3.61,15.244c-3.689,8.474-9.185,16.724-12.991,21.137c-3.108,3.602-7.481,5.584-12.315,5.584
	c-4.147,0-8.191-1.534-11.385-4.323C192.377,70.264,191.428,59.499,197.44,52.53z M186.003,270.135h-81.225L78.232,160.687h135.147
	L186.003,270.135z"/>
<g>
</g>
<g>
</g>
<g>
</g>
<g>
</g>
<g>
</g>
<g>
</g>
<g>
</g>
<g>
</g>
<g>
</g>
<g>
</g>
<g>
</g>
<g>
</g>
<g>
</g>
<g>
</g>
<g>
</g>
</svg>
